<svg width="904" height="431" xmlns="http://www.w3.org/2000/svg" xmlns:xlink="http://www.w3.org/1999/xlink" overflow="hidden"><defs><clipPath id="clip0"><rect x="133" y="117" width="904" height="431"/></clipPath><clipPath id="clip1"><rect x="134" y="54" width="191" height="270"/></clipPath><clipPath id="clip2"><rect x="134" y="97" width="191" height="269"/></clipPath><clipPath id="clip3"><rect x="134" y="139" width="191" height="270"/></clipPath><clipPath id="clip4"><rect x="134" y="181" width="191" height="270"/></clipPath><clipPath id="clip5"><rect x="595" y="12" width="221" height="270"/></clipPath><clipPath id="clip6"><rect x="595" y="54" width="221" height="270"/></clipPath><clipPath id="clip7"><rect x="595" y="97" width="221" height="269"/></clipPath><clipPath id="clip8"><rect x="595" y="139" width="221" height="270"/></clipPath><clipPath id="clip9"><rect x="595" y="181" width="221" height="270"/></clipPath><clipPath id="clip10"><rect x="597" y="374" width="220" height="269"/></clipPath></defs><g clip-path="url(#clip0)" transform="translate(-133 -117)"><path d="M134.783 125.53 324.522 125.53 324.522 167.93 134.783 167.93Z" fill="#BFBFBF" fill-rule="evenodd"/><path d="M324.522 125.53 514.261 125.53 514.261 167.93 324.522 167.93Z" fill="#BFBFBF" fill-rule="evenodd"/><path d="M134.783 167.93 324.522 167.93 324.522 210.33 134.783 210.33Z" fill="#FFF2CC" fill-rule="evenodd"/><path d="M324.522 167.93 514.261 167.93 514.261 210.33 324.522 210.33Z" fill="#FFF2CC" fill-rule="evenodd"/><path d="M134.783 210.33 324.522 210.33 324.522 252.73 134.783 252.73Z" fill="#A9D18E" fill-rule="evenodd"/><path d="M324.522 210.33 514.261 210.33 514.261 252.73 324.522 252.73Z" fill="#A9D18E" fill-rule="evenodd"/><path d="M134.783 252.73 324.522 252.73 324.522 295.13 134.783 295.13Z" fill="#FFF2CC" fill-rule="evenodd"/><path d="M324.522 252.73 514.261 252.73 514.261 295.13 324.522 295.13Z" fill="#FFF2CC" fill-rule="evenodd"/><path d="M134.783 295.13 324.522 295.13 324.522 337.53 134.783 337.53Z" fill="#A9D18E" fill-rule="evenodd"/><path d="M324.522 295.13 514.261 295.13 514.261 337.53 324.522 337.53Z" fill="#A9D18E" fill-rule="evenodd"/><path d="M324.522 124.864 324.522 338.197" stroke="#000000" stroke-width="1.33333" stroke-linejoin="round" stroke-miterlimit="10" fill="none" fill-rule="evenodd"/><path d="M134.116 167.93 514.928 167.93" stroke="#000000" stroke-width="1.33333" stroke-linejoin="round" stroke-miterlimit="10" fill="none" fill-rule="evenodd"/><path d="M134.116 210.33 514.928 210.33" stroke="#000000" stroke-width="1.33333" stroke-linejoin="round" stroke-miterlimit="10" fill="none" fill-rule="evenodd"/><path d="M134.116 252.73 514.928 252.73" stroke="#000000" stroke-width="1.33333" stroke-linejoin="round" stroke-miterlimit="10" fill="none" fill-rule="evenodd"/><path d="M134.116 295.13 514.928 295.13" stroke="#000000" stroke-width="1.33333" stroke-linejoin="round" stroke-miterlimit="10" fill="none" fill-rule="evenodd"/><path d="M134.783 124.864 134.783 338.197" stroke="#000000" stroke-width="1.33333" stroke-linejoin="round" stroke-miterlimit="10" fill="none" fill-rule="evenodd"/><path d="M514.261 124.864 514.261 338.197" stroke="#000000" stroke-width="1.33333" stroke-linejoin="round" stroke-miterlimit="10" fill="none" fill-rule="evenodd"/><path d="M134.116 125.53 514.928 125.53" stroke="#000000" stroke-width="1.33333" stroke-linejoin="round" stroke-miterlimit="10" fill="none" fill-rule="evenodd"/><path d="M134.116 337.53 514.928 337.53" stroke="#000000" stroke-width="1.33333" stroke-linejoin="round" stroke-miterlimit="10" fill="none" fill-rule="evenodd"/><text font-family="Tahoma,Tahoma_MSFontService,sans-serif" font-weight="700" font-size="32" transform="translate(186.736 160)">ROLE<tspan font-size="32" x="183.822" y="0">LEVEL</tspan></text><g clip-path="url(#clip1)"><text font-family="Tahoma,Tahoma_MSFontService,sans-serif" font-weight="400" font-size="32" transform="translate(136.783 202)">STUDENT</text></g><text font-family="Tahoma,Tahoma_MSFontService,sans-serif" font-weight="400" font-size="32" transform="translate(410.641 202)">1</text><g clip-path="url(#clip2)"><text font-family="Tahoma,Tahoma_MSFontService,sans-serif" font-weight="400" font-size="32" transform="translate(136.783 244)">TA</text></g><text font-family="Tahoma,Tahoma_MSFontService,sans-serif" font-weight="400" font-size="32" transform="translate(410.641 244)">2</text><g clip-path="url(#clip3)"><text font-family="Tahoma,Tahoma_MSFontService,sans-serif" font-weight="400" font-size="32" transform="translate(136.783 287)">LECTURER</text></g><text font-family="Tahoma,Tahoma_MSFontService,sans-serif" font-weight="400" font-size="32" transform="translate(410.641 287)">3</text><g clip-path="url(#clip4)"><text font-family="Tahoma,Tahoma_MSFontService,sans-serif" font-weight="400" font-size="32" transform="translate(136.783 329)">ADMIN</text></g><text font-family="Tahoma,Tahoma_MSFontService,sans-serif" font-weight="400" font-size="32" transform="translate(410.641 329)">4</text><path d="M595.826 125.53 815.478 125.53 815.478 167.93 595.826 167.93Z" fill="#BFBFBF" fill-rule="evenodd"/><path d="M815.478 125.53 1035.13 125.53 1035.13 167.93 815.478 167.93Z" fill="#BFBFBF" fill-rule="evenodd"/><path d="M595.826 167.93 815.478 167.93 815.478 210.33 595.826 210.33Z" fill="#A9D18E" fill-rule="evenodd"/><path d="M815.478 167.93 1035.13 167.93 1035.13 210.33 815.478 210.33Z" fill="#A9D18E" fill-rule="evenodd"/><path d="M595.826 210.33 815.478 210.33 815.478 252.73 595.826 252.73Z" fill="#FFF2CC" fill-rule="evenodd"/><path d="M815.478 210.33 1035.13 210.33 1035.13 252.73 815.478 252.73Z" fill="#FFF2CC" fill-rule="evenodd"/><path d="M595.826 252.73 815.478 252.73 815.478 295.13 595.826 295.13Z" fill="#A9D18E" fill-rule="evenodd"/><path d="M815.478 252.73 1035.13 252.73 1035.13 295.13 815.478 295.13Z" fill="#A9D18E" fill-rule="evenodd"/><path d="M595.826 295.13 815.478 295.13 815.478 337.53 595.826 337.53Z" fill="#FFF2CC" fill-rule="evenodd"/><path d="M815.478 295.13 1035.13 295.13 1035.13 337.53 815.478 337.53Z" fill="#FFF2CC" fill-rule="evenodd"/><path d="M815.478 124.864 815.478 338.197" stroke="#000000" stroke-width="1.33333" stroke-linejoin="round" stroke-miterlimit="10" fill="none" fill-rule="evenodd"/><path d="M595.159 167.93 1035.8 167.93" stroke="#000000" stroke-width="1.33333" stroke-linejoin="round" stroke-miterlimit="10" fill="none" fill-rule="evenodd"/><path d="M595.159 210.33 1035.8 210.33" stroke="#000000" stroke-width="1.33333" stroke-linejoin="round" stroke-miterlimit="10" fill="none" fill-rule="evenodd"/><path d="M595.159 252.73 1035.8 252.73" stroke="#000000" stroke-width="1.33333" stroke-linejoin="round" stroke-miterlimit="10" fill="none" fill-rule="evenodd"/><path d="M595.159 295.13 1035.8 295.13" stroke="#000000" stroke-width="1.33333" stroke-linejoin="round" stroke-miterlimit="10" fill="none" fill-rule="evenodd"/><path d="M595.826 124.864 595.826 338.197" stroke="#000000" stroke-width="1.33333" stroke-linejoin="round" stroke-miterlimit="10" fill="none" fill-rule="evenodd"/><path d="M1035.13 124.864 1035.13 338.197" stroke="#000000" stroke-width="1.33333" stroke-linejoin="round" stroke-miterlimit="10" fill="none" fill-rule="evenodd"/><path d="M595.159 125.53 1035.8 125.53" stroke="#000000" stroke-width="1.33333" stroke-linejoin="round" stroke-miterlimit="10" fill="none" fill-rule="evenodd"/><path d="M595.159 337.53 1035.8 337.53" stroke="#000000" stroke-width="1.33333" stroke-linejoin="round" stroke-miterlimit="10" fill="none" fill-rule="evenodd"/><g clip-path="url(#clip5)"><text font-family="Tahoma,Tahoma_MSFontService,sans-serif" font-weight="700" font-size="32" transform="translate(608.235 160)">OPERATION</text></g><text font-family="Tahoma,Tahoma_MSFontService,sans-serif" font-weight="700" font-size="32" transform="translate(882.388 160)">ROLE</text><g clip-path="url(#clip6)"><text font-family="Tahoma,Tahoma_MSFontService,sans-serif" font-weight="400" font-size="32" transform="translate(597.826 202)">VIEW NAME</text></g><text font-family="Tahoma,Tahoma_MSFontService,sans-serif" font-weight="400" font-size="32" transform="translate(856.721 202)">STUDENT</text><g clip-path="url(#clip7)"><text font-family="Tahoma,Tahoma_MSFontService,sans-serif" font-weight="400" font-size="32" transform="translate(597.826 244)">VIEW GRADE</text></g><text font-family="Tahoma,Tahoma_MSFontService,sans-serif" font-weight="400" font-size="32" transform="translate(907.288 244)">TA</text><g clip-path="url(#clip8)"><text font-family="Tahoma,Tahoma_MSFontService,sans-serif" font-weight="400" font-size="32" transform="translate(597.826 287)">EDIT GRADE</text></g><text font-family="Tahoma,Tahoma_MSFontService,sans-serif" font-weight="400" font-size="32" transform="translate(850.054 287)">LECTURER</text><g clip-path="url(#clip9)"><text font-family="Tahoma,Tahoma_MSFontService,sans-serif" font-weight="400" font-size="32" transform="translate(597.826 329)">EDIT INFO</text></g><text font-family="Tahoma,Tahoma_MSFontService,sans-serif" font-weight="400" font-size="32" transform="translate(875.888 329)">ADMIN</text><path d="M134.783 360 354.435 360 354.435 402.4 134.783 402.4Z" fill="#BFBFBF" fill-rule="evenodd"/><path d="M134.783 402.4 354.435 402.4 354.435 444.8 134.783 444.8Z" fill="#FFF2CC" fill-rule="evenodd"/><path d="M134.783 444.8 354.435 444.8 354.435 487.2 134.783 487.2Z" fill="#A9D18E" fill-rule="evenodd"/><path d="M134.783 487.2 354.435 487.2 354.435 529.6 134.783 529.6Z" fill="#FFF2CC" fill-rule="evenodd"/><path d="M134.116 402.4 355.102 402.4" stroke="#000000" stroke-width="1.33333" stroke-linejoin="round" stroke-miterlimit="10" fill="none" fill-rule="evenodd"/><path d="M134.116 444.8 355.102 444.8" stroke="#000000" stroke-width="1.33333" stroke-linejoin="round" stroke-miterlimit="10" fill="none" fill-rule="evenodd"/><path d="M134.116 487.2 355.102 487.2" stroke="#000000" stroke-width="1.33333" stroke-linejoin="round" stroke-miterlimit="10" fill="none" fill-rule="evenodd"/><path d="M134.783 359.333 134.783 530.267" stroke="#000000" stroke-width="1.33333" stroke-linejoin="round" stroke-miterlimit="10" fill="none" fill-rule="evenodd"/><path d="M354.435 359.333 354.435 530.267" stroke="#000000" stroke-width="1.33333" stroke-linejoin="round" stroke-miterlimit="10" fill="none" fill-rule="evenodd"/><path d="M134.116 360 355.102 360" stroke="#000000" stroke-width="1.33333" stroke-linejoin="round" stroke-miterlimit="10" fill="none" fill-rule="evenodd"/><path d="M134.116 529.6 355.102 529.6" stroke="#000000" stroke-width="1.33333" stroke-linejoin="round" stroke-miterlimit="10" fill="none" fill-rule="evenodd"/><text font-family="Tahoma,Tahoma_MSFontService,sans-serif" font-weight="700" font-size="32" transform="translate(171.859 394)">SESSION<tspan font-weight="400" font-size="32" x="31.5667" y="42">MATH</tspan><tspan font-weight="400" font-size="32" x="57.4167" y="85">IT</tspan><tspan font-weight="400" font-size="32" x="-12.2766" y="127">CHEMISTRY</tspan></text><path d="M597.217 360 816.87 360 816.87 402.4 597.217 402.4Z" fill="#BFBFBF" fill-rule="evenodd"/><path d="M597.217 402.4 816.87 402.4 816.87 444.8 597.217 444.8Z" fill="#A9D18E" fill-rule="evenodd"/><path d="M597.217 444.8 816.87 444.8 816.87 487.2 597.217 487.2Z" fill="#FFF2CC" fill-rule="evenodd"/><path d="M597.217 487.2 816.87 487.2 816.87 529.6 597.217 529.6Z" fill="#A9D18E" fill-rule="evenodd"/><path d="M596.551 402.4 817.536 402.4" stroke="#000000" stroke-width="1.33333" stroke-linejoin="round" stroke-miterlimit="10" fill="none" fill-rule="evenodd"/><path d="M596.551 444.8 817.536 444.8" stroke="#000000" stroke-width="1.33333" stroke-linejoin="round" stroke-miterlimit="10" fill="none" fill-rule="evenodd"/><path d="M596.551 487.2 817.536 487.2" stroke="#000000" stroke-width="1.33333" stroke-linejoin="round" stroke-miterlimit="10" fill="none" fill-rule="evenodd"/><path d="M597.217 359.333 597.217 530.267" stroke="#000000" stroke-width="1.33333" stroke-linejoin="round" stroke-miterlimit="10" fill="none" fill-rule="evenodd"/><path d="M816.87 359.333 816.87 530.267" stroke="#000000" stroke-width="1.33333" stroke-linejoin="round" stroke-miterlimit="10" fill="none" fill-rule="evenodd"/><path d="M596.551 360 817.536 360" stroke="#000000" stroke-width="1.33333" stroke-linejoin="round" stroke-miterlimit="10" fill="none" fill-rule="evenodd"/><path d="M596.551 529.6 817.536 529.6" stroke="#000000" stroke-width="1.33333" stroke-linejoin="round" stroke-miterlimit="10" fill="none" fill-rule="evenodd"/><text font-family="Tahoma,Tahoma_MSFontService,sans-serif" font-weight="700" font-size="32" transform="translate(645.377 394)">OBJECT<tspan font-weight="400" font-size="32" x="4.16656" y="42">Math.db</tspan><tspan font-weight="400" font-size="32" x="27.8333" y="85">It.db</tspan></text><g clip-path="url(#clip10)"><text font-family="Tahoma,Tahoma_MSFontService,sans-serif" font-weight="400" font-size="32" transform="translate(615.7 521)">Chemistry.db</text></g></g></svg>
